. 
 
 
http://www.torrentday.com :  Your Key To The Scene.


Now TvTeam with [No-RAR] Releases.


(((((((((((((= Enjoy No RAR releases =))))))))))))))))))))

...................................NFO:....................................

.General
ID                               : 3F3
Complete name                    : ZDF HD - June 18 14 31 12.ts
Format                           : MPEG-TS
File size                        : 4.34 GiB
Duration                         : 46mn 4s
Overall bit rate                 : 13.5 Mbps

Video
ID                               : 6110 (0x17DE)
Menu ID                          : 11110 (0x2B66)
Format                           : AVC
Format/Info                      : Advanced Video Codec
Format profile                   : Main@L4.0
Format settings, CABAC           : Yes
Format settings, ReFrames        : 5 frames
Duration                         : 46mn 3s
Bit rate mode                    : Variable
Bit rate                         : 12.0 Mbps
Maximum bit rate                 : 12.0 Mbps
Width                            : 1 280 pixels
Height                           : 720 pixels
Display aspect ratio             : 16:9
Frame rate                       : 50.000 fps
Resolution                       : 8 bits
Colorimetry                      : 4:2:0
Scan type                        : Progressive
Bits/(Pixel*Frame)               : 0.261
Stream size                      : 3.87 GiB (89%)
Color primaries                  : BT.709-5, BT.1361, IEC 61966-2-4, SMPTE RP177
Transfer characteristics         : BT.709-5, BT.1361
Matrix coefficients              : BT.709-5, BT.1361, IEC 61966-2-4 709, SMPTE RP177

Audio #1
ID                               : 6120 (0x17E8)
Menu ID                          : 11110 (0x2B66)
Format                           : MPEG Audio
Format version                   : Version 1
Format profile                   : Layer 2
Duration                         : 46mn 3s
Bit rate mode                    : Constant
Bit rate                         : 256 Kbps
Channel(s)                       : 2 channels
Sampling rate                    : 48.0 KHz
Video delay                      : -1s 198ms
Stream size                      : 84.3 MiB (2%)

Audio #2
ID                               : 6121 (0x17E9)
Menu ID                          : 11110 (0x2B66)
Format                           : MPEG Audio
Format version                   : Version 1
Format profile                   : Layer 2
Duration                         : 46mn 3s
Bit rate mode                    : Constant
Bit rate                         : 192 Kbps
Channel(s)                       : 2 channels
Sampling rate                    : 48.0 KHz
Video delay                      : -1s 142ms
Stream size                      : 63.3 MiB (1%)

Audio #3
ID                               : 6122 (0x17EA)
Menu ID                          : 11110 (0x2B66)
Format                           : AC-3
Format/Info                      : Audio Coding 3
Format_Settings_ModeExtension    : CM (complete main)
Duration                         : 46mn 3s
Bit rate mode                    : Constant
Bit rate                         : 448 Kbps
Channel(s)                       : 6 channels
Channel positions                : Front: L C R, Side: L R, LFE
Sampling rate                    : 48.0 KHz
Video delay                      : -1s 323ms
Stream size                      : 148 MiB (3%)

Text
ID                               : 6130 (0x17F2)
Menu ID                          : 11110 (0x2B66)
Format                           : Teletext
Language                         : German